{
  "accessors": [
    {
      "bufferView": 2,
      "componentType": 5126,
      "count": 2234,
      "max": [
        0.8458303809165955,
        0.9961853623390198,
        1.0906935930252075
      ],
      "min": [
        -0.8458303809165955,
        -1.6435234546661377,
        -1.006435751914978
      ],
      "type": "VEC3"
    },
    {
      "bufferView": 2,
      "byteOffset": 26808,
      "componentType": 5126,
      "count": 2234,
      "max": [
        0.9999711513519287,
        0.9998443722724915,
        0.9997698068618774
      ],
      "min": [
        -0.9999711513519287,
        -0.9996183514595032,
        -0.9998692870140076
      ],
      "type": "VEC3"
    },
    {
      "bufferView": 3,
      "componentType": 5126,
      "count": 2234,
      "max": [
        0.8901960849761963,
        1.0,
        1.0,
        1.0
      ],
      "min": [
        0.2078431397676468,
        0.0,
        0.0,
        1.0
      ],
      "type": "VEC4"
    },
    {
      "bufferView": 1,
      "componentType": 5126,
      "count": 2234,
      "max": [
        0.9980467557907104,
        0.7782600522041321
      ],
      "min": [
        0.0019531094003468752,
        0.0019531096331775188
      ],
      "type": "VEC2"
    },
    {
      "bufferView": 0,
      "componentType": 5125,
      "count": 13008,
      "type": "SCALAR"
    }
  ],
  "asset": {
    "extras": {
      "author": "SnailPot Studio (https://sketchfab.com/snailpot_studio)",
      "license": "CC-BY-4.0 (http://creativecommons.org/licenses/by/4.0/)",
      "source": "https://sketchfab.com/3d-models/simple-red-among-us-imposter-b13f848036194a38901852396e8f91b1",
      "title": "Simple Red Among Us IMPOSTER"
    },
    "generator": "Sketchfab-11.16.0",
    "version": "2.0"
  },
  "bufferViews": [
    {
      "buffer": 0,
      "byteLength": 52032,
      "name": "floatBufferViews",
      "target": 34963
    },
    {
      "buffer": 0,
      "byteLength": 17872,
      "byteOffset": 52032,
      "byteStride": 8,
      "name": "floatBufferViews",
      "target": 34962
    },
    {
      "buffer": 0,
      "byteLength": 53616,
      "byteOffset": 69904,
      "byteStride": 12,
      "name": "floatBufferViews",
      "target": 34962
    },
    {
      "buffer": 0,
      "byteLength": 35744,
      "byteOffset": 123520,
      "byteStride": 16,
      "name": "floatBufferViews",
      "target": 34962
    }
  ],
  "buffers": [
    {
      "byteLength": 159264,
      "uri": "scene.bin"
    }
  ],
  "materials": [
    {
      "doubleSided": true,
      "name": "PolySphere",
      "pbrMetallicRoughness": {
        "baseColorFactor": [
          0.5,
          0.5,
          0.5,
          1.0
        ],
        "metallicFactor": 0.0
      }
    }
  ],
  "meshes": [
    {
      "name": "PolySphere_PolySphere_0",
      "primitives": [
        {
          "attributes": {
            "COLOR_0": 2,
            "NORMAL": 1,
            "POSITION": 0,
            "TEXCOORD_0": 3
          },
          "indices": 4,
          "material": 0,
          "mode": 4
        }
      ]
    }
  ],
  "nodes": [
    {
      "children": [
        1
      ],
      "matrix": [
        1.0,
        0.0,
        0.0,
        0.0,
        0.0,
        2.220446049250313e-16,
        -1.0,
        0.0,
        0.0,
        1.0,
        2.220446049250313e-16,
        0.0,
        0.0,
        0.0,
        0.0,
        1.0
      ],
      "name": "Sketchfab_model"
    },
    {
      "children": [
        2
      ],
      "matrix": [
        1.0,
        0.0,
        0.0,
        0.0,
        0.0,
        0.0,
        1.0,
        0.0,
        0.0,
        -1.0,
        0.0,
        0.0,
        0.0,
        0.0,
        0.0,
        1.0
      ],
      "name": "489f21a681bc44b19ff0ef73b077497d.fbx"
    },
    {
      "children": [
        3
      ],
      "name": "RootNode"
    },
    {
      "children": [
        4
      ],
      "name": "PolySphere"
    },
    {
      "mesh": 0,
      "name": "PolySphere_PolySphere_0"
    }
  ],
  "scene": 0,
  "scenes": [
    {
      "name": "Sketchfab_Scene",
      "nodes": [
        0
      ]
    }
  ]
}
